# xmcd
#
# Track frame offsets:
#	150
#	14134
#	33195
#	52882
#	72560
#	88765
#	105920
#	126227
#	140290
#	160632
#	179095
#	198345
#
# Disc length: 2909 seconds
#
# Revision: 1
# Processed by: cddbd v1.5PL3 Copyright (c) Steve Scherf et al.
# Submitted via: MusicManager 7.0.4.0 
#
DISCID=a20b5b0c
DTITLE=Charlie Landsborough - Further Down The Road
DYEAR=1997
DGENRE=
TTITLE0=Further Down The Road
TTITLE1=Love You Every Second
TTITLE2=Saints
TTITLE3=It's Raining Outside
TTITLE4=God Knocking On Your Door
TTITLE5=The Twelfth Of Never
TTITLE6=Uninvited
TTITLE7=Loreto
TTITLE8=I Want  Someone Who Will Love Me
TTITLE9=The Green Hills Are Rolling Still
TTITLE10=Oh, Nancy
TTITLE11=In The Bleak Mid-Winter
EXTD=
EXTT0=
EXTT1=
EXTT2=
EXTT3=
EXTT4=
EXTT5=
EXTT6=
EXTT7=
EXTT8=
EXTT9=
EXTT10=
EXTT11=
PLAYORDER=
